<svg width="38" height="26" viewBox="0 0 38 26" fill="none" xmlns="http://www.w3.org/2000/svg">
<path d="M4.64755 1.84021C5.72724 1.2823 7.09677 1 8.76024 1H17.2969V25H8.35713C6.53906 25 5.0541 24.7176 3.8972 24.1589C2.73749 23.591 1.88677 22.8277 1.33827 21.8715C0.780084 20.9039 0.5 19.8111 0.5 18.591C0.5 17.3519 0.742935 16.307 1.22356 15.4515C1.7075 14.5901 2.31806 13.9297 3.05449 13.4669L3.05553 13.4663C3.78741 12.9939 4.53473 12.7404 5.29848 12.702L5.39487 12.6971V12.5981V12.3617V12.2809L5.31859 12.2609C4.60758 12.0746 3.95788 11.7798 3.36885 11.3769C2.77662 10.969 2.30397 10.4304 1.95064 9.7593C1.59959 9.08463 1.42139 8.25151 1.42139 7.25532C1.42139 6.07443 1.68991 5.01723 2.22518 4.08101C2.7591 3.13945 3.56492 2.39188 4.64755 1.84021ZM13.8394 22.0756H13.9407V21.9716V14.2175V14.1135H13.8394H8.57598C7.6109 14.1135 6.77238 14.3052 6.0639 14.6929C5.35039 15.0792 4.79867 15.6 4.4121 16.2558C4.02605 16.9108 3.83312 17.6308 3.83312 18.4137C3.83312 19.4598 4.21392 20.3351 4.97251 21.0325C5.73765 21.736 6.98968 22.0756 8.70267 22.0756H13.8394ZM13.8394 11.4728H13.9407V11.3688V4.00473V3.90071H13.8394H8.97909C7.55259 3.90071 6.47412 4.24263 5.7644 4.94647C5.06071 5.64434 4.70844 6.51084 4.70844 7.53901C4.70844 8.3375 4.9052 9.03616 5.30195 9.63073C5.68894 10.2143 6.21377 10.6672 6.87366 10.9898C7.52631 11.3125 8.25949 11.4728 9.07119 11.4728H13.8394ZM22.903 17.5744V25H19.5468V1H22.903V12.4562V12.5603H23.0043H23.2922H23.3381L23.3684 12.5249L33.2315 1H37.4391L28.0771 11.7249L28.0221 11.7879L28.071 11.856L37.5 25H33.4678L25.8736 14.2275L25.7988 14.1214L25.7151 14.2201L22.9279 17.5061L22.903 17.5355V17.5744Z" fill="url(#paint0_linear_3_3204)" stroke="white" stroke-opacity="0.2" stroke-width="0.3"/>
<defs>
<linearGradient id="paint0_linear_3_3204" x1="19" y1="1" x2="18.8205" y2="38.3714" gradientUnits="userSpaceOnUse">
<stop stop-color="#D9D9D9"/>
<stop offset="1" stop-color="#D9D9D9" stop-opacity="0"/>
</linearGradient>
</defs>
</svg>
